<svg xmlns="http://www.w3.org/2000/svg" viewBox="0 0 512 512"><defs><linearGradient id="g" x1="0" y1="0" x2="1" y2="1"><stop offset="0" stop-color="#7c83ff"/><stop offset="1" stop-color="#4338ca"/></linearGradient></defs><rect width="512" height="512" fill="url(#g)"/><g transform="translate(256 256) scale(.78) translate(-256 -256)"><g transform="translate(-18,-2)">
<path d="M156 176H226A34 34 0 1 1 286 176H356V246A34 34 0 1 1 356 306V376H156V306A34 34 0 1 0 156 246Z" fill="#fff" stroke="#fff" stroke-width="16" stroke-linejoin="round"/>
<clipPath id="f"><path d="M238 226H274V262L304 318Q310 336 292 336H220Q202 336 208 318L238 262Z"/></clipPath>
<path d="M238 226H274V262L304 318Q310 336 292 336H220Q202 336 208 318L238 262Z" fill="#eef0ff" stroke="#4338ca" stroke-width="10" stroke-linejoin="round"/>
<path clip-path="url(#f)" d="M190 300q16-10 33 0t33 0t33 0t33 0V345H190Z" fill="#fbbf24"/>
<path d="M238 226H274V262L304 318Q310 336 292 336H220Q202 336 208 318L238 262Z" fill="none" stroke="#4338ca" stroke-width="10" stroke-linejoin="round"/>
<rect x="230" y="216" width="52" height="14" rx="7" fill="#4338ca"/>
<circle cx="264" cy="204" r="6" fill="#6366f1"/><circle cx="282" cy="192" r="4" fill="#6366f1"/>
</g></g></svg>